<svg xmlns="http://www.w3.org/2000/svg" viewBox="0 0 128 128" fill="none">
    <rect width="128" height="128" rx="32" fill="#050505"/>
    
    <!-- Curly Braces (Cyan) -->
    <path d="M25 35c-4 0-7 3-7 7v15c0 4-2 6-5 6 3 0 5 2 5 6v15c0 4 3 7 7 7" stroke="#00E5FF" stroke-width="6" stroke-linecap="round" stroke-linejoin="round"/>
    <path d="M103 35c4 0 7 3 7 7v15c0 4 2 6 5 6-3 0-5 2-5 6v15c0 4-3 7-7 7" stroke="#00E5FF" stroke-width="6" stroke-linecap="round" stroke-linejoin="round"/>
    
    <!-- Green Pixels -->
    <rect x="78" y="38" width="12" height="12" fill="#76FF03"/>
    <rect x="91" y="32" width="7" height="7" fill="#76FF03"/>
    <rect x="85" y="27" width="4" height="4" fill="#76FF03"/>
    
    <!-- BRZ Text (Interlocking Bold Style) -->
    <g fill="white">
        <!-- B -->
        <path d="M28 45h12c5 0 8 2.5 8 6.5s-2 5.5-5 6c4 0.5 6 3 6 7.5s-3.5 8-9 8H28V45zm5 6v7h6c2.5 0 3.5-1 3.5-3.5S41.5 51 39 51h-6zm0 12v10h7c3 0 4.5-1.5 4.5-5s-1.5-5-4.5-5h-7z"/>
        <!-- R (Connects slightly with B) -->
        <path d="M50 45h11c5 0 8 2.5 8 6.5s-3 6-6 6.5L69 73h-6l-5-10.5h-3V73h-5V45zm5 6v7h5c2.5 0 3.5-1 3.5-3.5S62.5 51 60 51h-5z"/>
        <!-- Z (Sharp Tech Style) -->
        <path d="M71 45h18v5l-12 18h12v5H71v-5l12-18H71v-5z"/>
    </g>
</svg>